<svg width="120" height="139" version="1.1" viewBox="0 0 120 139" xml:space="preserve" xmlns="http://www.w3.org/2000/svg">
<path fill="#A783B3" stroke="#FFA8FF" stroke-width="2" stroke-linejoin="round" d="M20,1h80c10.5,0,19,8.5,19,19v80c0,10.5-8.5,19-19,19H20c-10.5,0-19-8.5-19-19V20C1,9.5,9.5,1,20,1z"/>
<path fill="#A783B3" stroke="#FFA8FF" stroke-width="2" stroke-linejoin="round" d="m60.9 135.5c-0.4 0.7-1.3 0.7-1.7 0l-6.9-12c-0.4-0.7 0.1-1.5 0.9-1.5h13.9c0.8 0 1.3 0.8 0.9 1.5l-7.1 12z"/>
<path fill="black" fill-opacity="0.8" clip-rule="evenodd" fill-rule="evenodd" d="m51.2 34.3h23.2c1.8 0 2.6 1.6 3.3 3.3l2.5 6.2h4.3c4.3 0 7.8 3.5 7.8 7.8v24.8c0 4.3-3.5 7.8-7.8 7.8h-49.7c-4.3 0-7.8-3.5-7.8-7.8v-24.8c0-4.3 3.5-7.8 7.8-7.8h10.3l2.8-6.2c0.7-1.7 1.5-3.3 3.3-3.3zm9.8 18.4c5.2 0 9.5 4.3 9.5 9.5s-4.3 9.5-9.5 9.5-9.5-4.3-9.5-9.5c0-5.3 4.2-9.5 9.5-9.5zm22.4-3.7c1.7 0 3.1 1.4 3.1 3.1s-1.4 3.1-3.1 3.1-3.1-1.4-3.1-3.1 1.4-3.1 3.1-3.1zm-22.4-2.5c8.7 0 15.7 7 15.7 15.7s-7 15.7-15.7 15.7-15.7-7-15.7-15.7 7-15.7 15.7-15.7z"/>
</svg>
