<svg width="120" height="139" viewBox="0 0 120 139" fill="none" xmlns="http://www.w3.org/2000/svg">
<rect x="1" y="1" width="118" height="118" rx="19" fill="#A76363" stroke="#F51D2C" stroke-width="2" stroke-linejoin="round"/>
<path d="M60.8662 135.5C60.4813 136.167 59.5187 136.167 59.1338 135.5L52.2061 123.5C51.8212 122.833 52.3025 122 53.0723 122L66.9277 122C67.6975 122 68.1788 122.833 67.7939 123.5L60.8662 135.5Z" fill="#A76363" stroke="#F51D2C" stroke-width="2" stroke-linejoin="round"/>
<g clip-path="url(#clip0_2202_12)">
<path d="M103.725 65.9812H98.5876C98.1001 65.9812 97.7251 66.3563 97.7251 66.8438V70.8438C97.7251 71.9483 96.8297 72.8438 95.7251 72.8438H92.8626C91.758 72.8438 90.8626 71.9483 90.8626 70.8438V39.4125C90.8626 38.925 90.4876 38.55 90.0001 38.55H84.8626C84.3751 38.55 84.0001 38.925 84.0001 39.4125V43.4125C84.0001 44.5171 83.1047 45.4125 82.0001 45.4125H79.1376C78.033 45.4125 77.1376 44.5171 77.1376 43.4125V39.4125C77.1376 38.925 76.7626 38.55 76.2751 38.55H71.1376C70.6501 38.55 70.2751 38.925 70.2751 39.4125V43.4125C70.2751 44.5171 69.3797 45.4125 68.2751 45.4125H65.4126C64.308 45.4125 63.4126 44.5171 63.4126 43.4125V39.4125C63.4126 39.1278 63.3166 38.932 63.1619 38.7983C62.3262 38.076 61.2188 37.6546 61.2188 36.55V33.0003C61.2188 32.0762 61.8504 31.2627 62.7601 31.1004C63.8428 30.9072 64.9487 30.7875 66.0376 30.7875C68.0813 30.7875 69.9563 31.5938 71.9251 31.5938C72.7876 31.5938 77.1188 31.3875 77.1188 30.0938V18.8437C77.1188 18.3562 76.7438 17.9813 76.2563 17.9813C75.3001 17.9813 73.4251 18.7875 71.7563 18.7875C69.9376 18.7875 67.8376 17.9813 65.6438 17.9813C64.3502 17.9813 63.0565 18.1347 61.7989 18.3934C61.492 18.4565 61.2001 18.2252 61.2001 17.9119V17.9119C61.2001 17.725 61.3091 17.5577 61.4679 17.4593C62.333 16.924 62.9063 15.9478 62.9063 14.925C62.9063 11.0438 57.0188 11.025 57.0188 14.925C57.0188 15.6281 57.2898 16.3092 57.7402 16.8402C58.2372 17.4261 58.7251 18.0947 58.7251 18.863V36.55C58.7251 37.6546 57.6177 38.076 56.7821 38.7983C56.6274 38.932 56.5313 39.1278 56.5313 39.4125V43.4125C56.5313 44.5171 55.6359 45.4125 54.5313 45.4125H51.6688C50.5643 45.4125 49.6688 44.5171 49.6688 43.4125V39.4125C49.6688 38.925 49.2938 38.55 48.8063 38.55H43.6688C43.1813 38.55 42.8063 38.925 42.8063 39.4125V43.4125C42.8063 44.5171 41.9109 45.4125 40.8063 45.4125H38.0001C36.8955 45.4125 36.0001 44.5171 36.0001 43.4125V39.4125C36.0001 38.925 35.6251 38.55 35.1376 38.55H30.0001C29.5126 38.55 29.1376 38.925 29.1376 39.4125V70.8437C29.1376 71.9483 28.2422 72.8438 27.1376 72.8438H24.2751C23.1705 72.8438 22.2751 71.9483 22.2751 70.8438V66.8438C22.2751 66.3563 21.9001 65.9812 21.4126 65.9812H16.2751C15.7876 65.9812 15.4126 66.3563 15.4126 66.8438V106C15.4126 107.105 16.308 108 17.4126 108H47.7063C48.8109 108 49.7063 107.105 49.7063 106V90C49.7063 76.3875 70.2751 76.3875 70.2751 90V106C70.2751 107.105 71.1705 108 72.2751 108H102.569C103.673 108 104.569 107.105 104.569 106V66.8438C104.588 66.3563 104.213 65.9812 103.725 65.9812ZM49.7063 65.1375C49.7063 65.625 49.3313 66 48.8438 66H43.7063C43.2188 66 42.8438 65.625 42.8438 65.1375V53.1375C42.8438 52.65 43.2188 52.275 43.7063 52.275H48.8438C49.3313 52.275 49.7063 52.65 49.7063 53.1375V65.1375ZM77.1563 65.1375C77.1563 65.625 76.7813 66 76.2938 66H71.1563C70.6688 66 70.2938 65.625 70.2938 65.1375V53.1375C70.2938 52.65 70.6688 52.275 71.1563 52.275H76.2938C76.7813 52.275 77.1563 52.65 77.1563 53.1375V65.1375Z" fill="black" fill-opacity="0.8"/>
</g>
<defs>
<clipPath id="clip0_2202_12">
<rect x="12" y="12" width="96" height="96" rx="2" fill="white"/>
</clipPath>
</defs>
</svg>
