<svg width="120" height="139" viewBox="0 0 120 139" fill="none" xmlns="http://www.w3.org/2000/svg">
<rect x="1" y="1" width="118" height="118" rx="19" fill="#A78363" stroke="#FFA800" stroke-width="2" stroke-linejoin="round"/>
<path d="M60.8662 135.5C60.4813 136.167 59.5187 136.167 59.1338 135.5L52.2061 123.5C51.8212 122.833 52.3025 122 53.0723 122L66.9277 122C67.6975 122 68.1788 122.833 67.7939 123.5L60.8662 135.5Z" fill="#A78363" stroke="#FFA800" stroke-width="2" stroke-linejoin="round"/>
<path d="M32.3397 16C31.2351 16 30.3397 16.8954 30.3397 18V32.6506C30.3397 33.1423 30.5208 33.6167 30.8484 33.9833L38.4972 42.5423C38.8249 42.9089 39.006 43.3833 39.006 43.875V75.4297C39.006 76.5343 38.1105 77.4297 37.006 77.4297H35.853C34.8759 77.4297 34.0418 78.1357 33.8804 79.0994L30.1265 101.519C29.9223 102.739 30.8626 103.85 32.099 103.85H87.3616C88.5981 103.85 89.5384 102.739 89.3342 101.519L85.5804 79.0994C85.419 78.1357 84.585 77.4297 83.6078 77.4297H82.4493C81.3447 77.4297 80.4493 76.5343 80.4493 75.4297V43.875C80.4493 43.3833 80.6304 42.9089 80.958 42.5423L88.6068 33.9833C88.9344 33.6167 89.1155 33.1423 89.1155 32.6506V18C89.1155 16.8954 88.2201 16 87.1155 16H81.0021C79.8976 16 79.0021 16.8954 79.0021 18V22.2444C79.0021 23.3489 78.1067 24.2444 77.0021 24.2444H74.8437C73.7391 24.2444 72.8437 23.3489 72.8437 22.2444V18C72.8437 16.8954 71.9483 16 70.8437 16H64.7303C63.6258 16 62.7303 16.8954 62.7303 18V22.2444C62.7303 23.3489 61.8349 24.2444 60.7303 24.2444H58.6484C57.5438 24.2444 56.6484 23.3489 56.6484 22.2444V18C56.6484 16.8954 55.753 16 54.6484 16H48.535C47.4304 16 46.535 16.8954 46.535 18V22.2444C46.535 23.3489 45.6396 24.2444 44.535 24.2444H42.4531C41.3485 24.2444 40.4531 23.3489 40.4531 22.2444V18C40.4531 16.8954 39.5576 16 38.4531 16H32.3397ZM44.1678 46.4161C44.1678 45.4485 44.9522 44.6641 45.9198 44.6641V44.6641C46.8874 44.6641 47.6718 45.4485 47.6718 46.4161V52.3283C47.6718 53.2959 46.8874 54.0803 45.9198 54.0803V54.0803C44.9522 54.0803 44.1678 53.2959 44.1678 52.3283V46.4161ZM57.9667 46.4161C57.9667 45.4485 58.7511 44.6641 59.7187 44.6641V44.6641C60.6863 44.6641 61.4707 45.4485 61.4707 46.4161V52.3283C61.4707 53.2959 60.6863 54.0803 59.7187 54.0803V54.0803C58.7511 54.0803 57.9667 53.2959 57.9667 52.3283V46.4161ZM71.871 46.4161C71.871 45.4485 72.6554 44.6641 73.623 44.6641V44.6641C74.5906 44.6641 75.375 45.4485 75.375 46.4161V52.3283C75.375 53.2959 74.5906 54.0803 73.623 54.0803V54.0803C72.6554 54.0803 71.871 53.2959 71.871 52.3283V46.4161Z" fill="black" fill-opacity="0.8"/>
</svg>
